<mxfile host="app.diagrams.net" agent="Mozilla/5.0 (Windows NT 10.0; Win64; x64) AppleWebKit/537.36 (KHTML, like Gecko) Chrome/131.0.0.0 Safari/537.36" version="26.0.3">
  <diagram name="Halaman-1" id="Ew8mlCFWf-Ym1b9FQzBU">
    <mxGraphModel dx="700" dy="371" grid="1" gridSize="10" guides="1" tooltips="1" connect="1" arrows="1" fold="1" page="1" pageScale="1" pageWidth="827" pageHeight="1169" math="0" shadow="0">
      <root>
        <mxCell id="0" />
        <mxCell id="1" parent="0" />
        <mxCell id="3bG0qSMxlG7-lFLIRrLA-4" value="nomor_tiket" style="ellipse;whiteSpace=wrap;html=1;align=center;" vertex="1" parent="1">
          <mxGeometry x="40" y="40" width="100" height="40" as="geometry" />
        </mxCell>
        <mxCell id="3bG0qSMxlG7-lFLIRrLA-5" value="user" style="ellipse;whiteSpace=wrap;html=1;align=center;" vertex="1" parent="1">
          <mxGeometry x="160" y="40" width="100" height="40" as="geometry" />
        </mxCell>
        <mxCell id="3bG0qSMxlG7-lFLIRrLA-6" value="trayek" style="ellipse;whiteSpace=wrap;html=1;align=center;" vertex="1" parent="1">
          <mxGeometry x="280" y="40" width="100" height="40" as="geometry" />
        </mxCell>
        <mxCell id="3bG0qSMxlG7-lFLIRrLA-7" value="Pemesanan" style="shape=rhombus;perimeter=rhombusPerimeter;whiteSpace=wrap;html=1;align=center;" vertex="1" parent="1">
          <mxGeometry x="150" y="120" width="120" height="60" as="geometry" />
        </mxCell>
        <mxCell id="3bG0qSMxlG7-lFLIRrLA-8" value="nama" style="ellipse;whiteSpace=wrap;html=1;align=center;" vertex="1" parent="1">
          <mxGeometry x="40" y="210" width="100" height="40" as="geometry" />
        </mxCell>
        <mxCell id="3bG0qSMxlG7-lFLIRrLA-9" value="password" style="ellipse;whiteSpace=wrap;html=1;align=center;" vertex="1" parent="1">
          <mxGeometry x="260" y="210" width="100" height="40" as="geometry" />
        </mxCell>
        <mxCell id="3bG0qSMxlG7-lFLIRrLA-10" value="User" style="whiteSpace=wrap;html=1;align=center;" vertex="1" parent="1">
          <mxGeometry x="140" y="350" width="100" height="40" as="geometry" />
        </mxCell>
        <mxCell id="3bG0qSMxlG7-lFLIRrLA-11" value="Rute" style="whiteSpace=wrap;html=1;align=center;" vertex="1" parent="1">
          <mxGeometry x="450" y="350" width="100" height="40" as="geometry" />
        </mxCell>
        <mxCell id="3bG0qSMxlG7-lFLIRrLA-12" value="tujuan" style="ellipse;whiteSpace=wrap;html=1;align=center;" vertex="1" parent="1">
          <mxGeometry x="370" y="210" width="100" height="40" as="geometry" />
        </mxCell>
        <mxCell id="3bG0qSMxlG7-lFLIRrLA-13" value="Melayani" style="shape=rhombus;perimeter=rhombusPerimeter;whiteSpace=wrap;html=1;align=center;" vertex="1" parent="1">
          <mxGeometry x="510" y="120" width="120" height="60" as="geometry" />
        </mxCell>
        <mxCell id="3bG0qSMxlG7-lFLIRrLA-14" value="Transportasi" style="whiteSpace=wrap;html=1;align=center;" vertex="1" parent="1">
          <mxGeometry x="610" y="350" width="100" height="40" as="geometry" />
        </mxCell>
        <mxCell id="3bG0qSMxlG7-lFLIRrLA-15" value="jenis" style="ellipse;whiteSpace=wrap;html=1;align=center;" vertex="1" parent="1">
          <mxGeometry x="600" y="210" width="100" height="40" as="geometry" />
        </mxCell>
        <mxCell id="3bG0qSMxlG7-lFLIRrLA-16" value="nomor" style="ellipse;whiteSpace=wrap;html=1;align=center;" vertex="1" parent="1">
          <mxGeometry x="710" y="210" width="100" height="40" as="geometry" />
        </mxCell>
        <mxCell id="3bG0qSMxlG7-lFLIRrLA-17" value="" style="curved=1;endArrow=none;html=1;rounded=0;entryX=0;entryY=1;entryDx=0;entryDy=0;exitX=0.75;exitY=0;exitDx=0;exitDy=0;endFill=0;" edge="1" parent="1" source="3bG0qSMxlG7-lFLIRrLA-11" target="3bG0qSMxlG7-lFLIRrLA-13">
          <mxGeometry width="50" height="50" relative="1" as="geometry">
            <mxPoint x="500" y="300" as="sourcePoint" />
            <mxPoint x="550" y="250" as="targetPoint" />
            <Array as="points">
              <mxPoint x="550" y="300" />
              <mxPoint x="500" y="250" />
            </Array>
          </mxGeometry>
        </mxCell>
        <mxCell id="3bG0qSMxlG7-lFLIRrLA-19" value="" style="curved=1;endArrow=none;html=1;rounded=0;entryX=1;entryY=1;entryDx=0;entryDy=0;exitX=0.5;exitY=0;exitDx=0;exitDy=0;endFill=0;" edge="1" parent="1" source="3bG0qSMxlG7-lFLIRrLA-14" target="3bG0qSMxlG7-lFLIRrLA-13">
          <mxGeometry width="50" height="50" relative="1" as="geometry">
            <mxPoint x="575" y="360" as="sourcePoint" />
            <mxPoint x="590" y="175" as="targetPoint" />
            <Array as="points">
              <mxPoint x="600" y="310" />
              <mxPoint x="550" y="260" />
            </Array>
          </mxGeometry>
        </mxCell>
        <mxCell id="3bG0qSMxlG7-lFLIRrLA-20" value="" style="curved=1;endArrow=none;html=1;rounded=0;entryX=1;entryY=0.5;entryDx=0;entryDy=0;endFill=0;exitX=0.25;exitY=0;exitDx=0;exitDy=0;" edge="1" parent="1" source="3bG0qSMxlG7-lFLIRrLA-11" target="3bG0qSMxlG7-lFLIRrLA-7">
          <mxGeometry width="50" height="50" relative="1" as="geometry">
            <mxPoint x="380" y="280" as="sourcePoint" />
            <mxPoint x="560" y="185" as="targetPoint" />
            <Array as="points">
              <mxPoint x="520" y="270" />
              <mxPoint x="420" y="150" />
            </Array>
          </mxGeometry>
        </mxCell>
        <mxCell id="3bG0qSMxlG7-lFLIRrLA-21" value="" style="curved=1;endArrow=none;html=1;rounded=0;entryX=0.5;entryY=1;entryDx=0;entryDy=0;exitX=0.5;exitY=0;exitDx=0;exitDy=0;endFill=0;" edge="1" parent="1" source="3bG0qSMxlG7-lFLIRrLA-10" target="3bG0qSMxlG7-lFLIRrLA-7">
          <mxGeometry width="50" height="50" relative="1" as="geometry">
            <mxPoint x="185" y="365" as="sourcePoint" />
            <mxPoint x="200" y="180" as="targetPoint" />
            <Array as="points">
              <mxPoint x="210" y="315" />
              <mxPoint x="160" y="265" />
            </Array>
          </mxGeometry>
        </mxCell>
        <mxCell id="3bG0qSMxlG7-lFLIRrLA-22" value="" style="endArrow=none;html=1;rounded=0;exitX=0.25;exitY=0;exitDx=0;exitDy=0;entryX=0.5;entryY=1;entryDx=0;entryDy=0;" edge="1" parent="1" source="3bG0qSMxlG7-lFLIRrLA-10" target="3bG0qSMxlG7-lFLIRrLA-8">
          <mxGeometry width="50" height="50" relative="1" as="geometry">
            <mxPoint x="70" y="310" as="sourcePoint" />
            <mxPoint x="120" y="260" as="targetPoint" />
          </mxGeometry>
        </mxCell>
        <mxCell id="3bG0qSMxlG7-lFLIRrLA-23" value="" style="endArrow=none;html=1;rounded=0;exitX=0.75;exitY=0;exitDx=0;exitDy=0;entryX=0.5;entryY=1;entryDx=0;entryDy=0;" edge="1" parent="1" source="3bG0qSMxlG7-lFLIRrLA-10" target="3bG0qSMxlG7-lFLIRrLA-9">
          <mxGeometry width="50" height="50" relative="1" as="geometry">
            <mxPoint x="175" y="360" as="sourcePoint" />
            <mxPoint x="100" y="260" as="targetPoint" />
            <Array as="points">
              <mxPoint x="270" y="290" />
            </Array>
          </mxGeometry>
        </mxCell>
        <mxCell id="3bG0qSMxlG7-lFLIRrLA-24" value="" style="endArrow=none;html=1;rounded=0;exitX=0;exitY=0;exitDx=0;exitDy=0;entryX=0;entryY=1;entryDx=0;entryDy=0;" edge="1" parent="1" source="3bG0qSMxlG7-lFLIRrLA-11" target="3bG0qSMxlG7-lFLIRrLA-12">
          <mxGeometry width="50" height="50" relative="1" as="geometry">
            <mxPoint x="175" y="360" as="sourcePoint" />
            <mxPoint x="100" y="260" as="targetPoint" />
            <Array as="points">
              <mxPoint x="420" y="300" />
            </Array>
          </mxGeometry>
        </mxCell>
        <mxCell id="3bG0qSMxlG7-lFLIRrLA-25" value="" style="endArrow=none;html=1;rounded=0;exitX=0.75;exitY=0;exitDx=0;exitDy=0;entryX=0.5;entryY=1;entryDx=0;entryDy=0;" edge="1" parent="1" source="3bG0qSMxlG7-lFLIRrLA-14" target="3bG0qSMxlG7-lFLIRrLA-15">
          <mxGeometry width="50" height="50" relative="1" as="geometry">
            <mxPoint x="460" y="360" as="sourcePoint" />
            <mxPoint x="395" y="254" as="targetPoint" />
            <Array as="points" />
          </mxGeometry>
        </mxCell>
        <mxCell id="3bG0qSMxlG7-lFLIRrLA-26" value="" style="endArrow=none;html=1;rounded=0;exitX=1;exitY=0;exitDx=0;exitDy=0;entryX=0.5;entryY=1;entryDx=0;entryDy=0;" edge="1" parent="1" source="3bG0qSMxlG7-lFLIRrLA-14" target="3bG0qSMxlG7-lFLIRrLA-16">
          <mxGeometry width="50" height="50" relative="1" as="geometry">
            <mxPoint x="695" y="360" as="sourcePoint" />
            <mxPoint x="660" y="260" as="targetPoint" />
            <Array as="points" />
          </mxGeometry>
        </mxCell>
        <mxCell id="3bG0qSMxlG7-lFLIRrLA-27" value="" style="endArrow=none;html=1;rounded=0;entryX=0.5;entryY=1;entryDx=0;entryDy=0;exitX=0;exitY=0;exitDx=0;exitDy=0;" edge="1" parent="1" source="3bG0qSMxlG7-lFLIRrLA-7" target="3bG0qSMxlG7-lFLIRrLA-4">
          <mxGeometry width="50" height="50" relative="1" as="geometry">
            <mxPoint x="40" y="170" as="sourcePoint" />
            <mxPoint x="90" y="120" as="targetPoint" />
          </mxGeometry>
        </mxCell>
        <mxCell id="3bG0qSMxlG7-lFLIRrLA-28" value="" style="endArrow=none;html=1;rounded=0;entryX=0.5;entryY=1;entryDx=0;entryDy=0;exitX=0.5;exitY=0;exitDx=0;exitDy=0;" edge="1" parent="1" source="3bG0qSMxlG7-lFLIRrLA-7" target="3bG0qSMxlG7-lFLIRrLA-5">
          <mxGeometry width="50" height="50" relative="1" as="geometry">
            <mxPoint x="40" y="210" as="sourcePoint" />
            <mxPoint x="90" y="160" as="targetPoint" />
          </mxGeometry>
        </mxCell>
        <mxCell id="3bG0qSMxlG7-lFLIRrLA-29" value="" style="endArrow=none;html=1;rounded=0;entryX=0.5;entryY=1;entryDx=0;entryDy=0;exitX=1;exitY=0;exitDx=0;exitDy=0;" edge="1" parent="1" source="3bG0qSMxlG7-lFLIRrLA-7" target="3bG0qSMxlG7-lFLIRrLA-6">
          <mxGeometry width="50" height="50" relative="1" as="geometry">
            <mxPoint x="50" y="160" as="sourcePoint" />
            <mxPoint x="330" y="80" as="targetPoint" />
          </mxGeometry>
        </mxCell>
        <mxCell id="3bG0qSMxlG7-lFLIRrLA-30" value="(0,N)" style="text;align=center;fontStyle=1;verticalAlign=middle;spacingLeft=3;spacingRight=3;strokeColor=none;rotatable=0;points=[[0,0.5],[1,0.5]];portConstraint=eastwest;html=1;" vertex="1" parent="1">
          <mxGeometry x="160" y="250" width="80" height="26" as="geometry" />
        </mxCell>
        <mxCell id="3bG0qSMxlG7-lFLIRrLA-31" value="(0,N)" style="text;align=center;fontStyle=1;verticalAlign=middle;spacingLeft=3;spacingRight=3;strokeColor=none;rotatable=0;points=[[0,0.5],[1,0.5]];portConstraint=eastwest;html=1;" vertex="1" parent="1">
          <mxGeometry x="414" y="154" width="80" height="26" as="geometry" />
        </mxCell>
        <mxCell id="3bG0qSMxlG7-lFLIRrLA-33" value="(1,N)" style="text;align=center;fontStyle=1;verticalAlign=middle;spacingLeft=3;spacingRight=3;strokeColor=none;rotatable=0;points=[[0,0.5],[1,0.5]];portConstraint=eastwest;html=1;" vertex="1" parent="1">
          <mxGeometry x="494" y="224" width="80" height="26" as="geometry" />
        </mxCell>
        <mxCell id="3bG0qSMxlG7-lFLIRrLA-34" value="(1,N)" style="text;align=center;fontStyle=1;verticalAlign=middle;spacingLeft=3;spacingRight=3;strokeColor=none;rotatable=0;points=[[0,0.5],[1,0.5]];portConstraint=eastwest;html=1;" vertex="1" parent="1">
          <mxGeometry x="550" y="260" width="80" height="26" as="geometry" />
        </mxCell>
      </root>
    </mxGraphModel>
  </diagram>
</mxfile>
